<?xml version="1.0" standalone="no"?>
<!DOCTYPE svg PUBLIC "-//W3C//DTD SVG 20010904//EN"
 "http://www.w3.org/TR/2001/REC-SVG-20010904/DTD/svg10.dtd">
<svg version="1.0" xmlns="http://www.w3.org/2000/svg"
 width="400.000000pt" height="400.000000pt" viewBox="0 0 400.000000 400.000000"
 preserveAspectRatio="xMidYMid meet">

<g transform="translate(0.000000,400.000000) scale(0.100000,-0.100000)"
fill="#000000" stroke="none">
<path d="M0 2000 l0 -2000 2000 0 2000 0 0 2000 0 2000 -2000 0 -2000 0 0
-2000z m903 370 l97 0 0 -35 0 -35 -75 0 -75 0 0 -35 0 -35 75 0 75 0 0 -35 0
-35 -75 0 -75 0 0 -45 0 -44 78 -3 77 -3 0 -35 0 -35 -127 -3 -128 -3 0 189
c0 104 3 192 7 196 4 4 17 5 28 2 11 -3 64 -6 118 -6z m232 -186 l0 -189 -37
-3 -38 -3 0 193 0 193 37 -1 38 -1 0 -189z m718 75 c60 -3 62 -4 65 -31 3 -25
0 -27 -40 -30 l-43 -3 -3 -56 c-4 -69 14 -94 59 -84 27 6 29 4 29 -23 0 -18
-6 -32 -16 -36 -24 -9 -93 -7 -114 4 -26 14 -40 63 -40 136 0 50 -3 64 -15 64
-27 0 -16 24 38 78 l52 53 3 -36 c3 -28 8 -35 25 -36z m-478 -15 c36 -17 65
-65 65 -108 0 -28 -9 -30 -123 -27 -45 1 -48 0 -45 -21 5 -34 53 -54 98 -41
19 6 43 14 53 18 14 6 17 2 17 -19 0 -38 -54 -60 -133 -54 -49 4 -63 9 -90 36
-29 30 -32 38 -32 96 0 55 4 68 25 91 44 47 105 58 165 29z m299 6 c20 -7 26
-17 26 -38 0 -28 0 -29 -53 -24 -41 3 -57 0 -70 -13 -22 -21 -22 -88 -1 -106
18 -14 68 -17 102 -6 20 8 22 5 22 -26 0 -40 -14 -47 -91 -47 -82 0 -139 55
-139 135 0 99 105 163 204 125z m357 0 c5 0 9 -12 9 -26 l0 -26 29 31 c31 33
57 39 84 18 15 -10 16 -17 7 -44 -10 -29 -14 -31 -45 -26 -28 5 -36 1 -52 -23
-11 -17 -20 -54 -23 -94 l-5 -65 -35 0 -35 0 -3 127 c-2 114 -1 127 15 131 10
3 24 3 31 1 8 -2 18 -4 23 -4z m343 -4 c136 -57 96 -256 -51 -256 -97 0 -150
56 -141 149 6 56 26 86 73 107 39 17 78 17 119 0z m174 -213 l3 -53 266 0 266
0 -21 -23 c-27 -29 -28 -47 -2 -47 18 0 20 -7 20 -78 0 -87 11 -107 66 -117
49 -9 89 7 92 39 3 26 2 28 -28 21 -46 -10 -60 7 -60 76 l0 58 43 3 c37 3 42
6 42 28 0 22 -5 26 -45 31 -37 5 -32 6 33 7 l77 2 0 -180 0 -180 -1310 0
-1310 0 0 180 0 180 895 0 895 0 0 -130 0 -130 40 0 39 0 3 63 3 62 45 -62
c44 -62 46 -62 94 -63 l48 0 -24 33 c-13 17 -35 46 -48 64 l-23 32 47 58 46
58 -43 3 c-45 4 -52 -1 -119 -88 l-28 -35 0 68 0 67 -35 0 -35 0 0 56 0 55 33
-3 c31 -3 32 -4 35 -55z m592 -23 c0 -25 -4 -30 -25 -30 -30 0 -30 4 -7 35 23
33 32 31 32 -5z"/>
<path d="M1282 2188 c-25 -25 -13 -38 33 -38 49 0 50 1 35 31 -12 21 -50 25
-68 7z"/>
<path d="M2281 2177 c-6 -8 -14 -28 -17 -45 -5 -25 -1 -36 19 -56 31 -31 41
-32 67 -6 24 24 26 67 4 98 -17 25 -56 29 -73 9z"/>
<path d="M1487 1963 c-4 -3 -7 -60 -7 -125 l0 -118 40 0 40 0 0 85 c0 80 1 85
26 102 46 30 59 10 62 -96 l3 -91 39 0 40 0 0 85 c0 80 1 85 26 102 46 30 59
10 62 -96 l3 -91 40 0 41 0 -4 106 c-3 97 -5 107 -27 125 -31 25 -91 25 -124
-1 l-26 -21 -21 21 c-24 24 -86 27 -117 5 -19 -13 -22 -13 -27 0 -5 15 -57 21
-69 8z"/>
<path d="M1989 1959 c-18 -7 -29 -19 -32 -37 -7 -35 -4 -37 26 -17 35 22 102
17 102 -8 0 -13 -18 -25 -60 -42 -89 -37 -107 -73 -59 -121 21 -22 31 -25 62
-19 20 4 42 11 49 17 9 7 17 5 28 -6 19 -19 23 -19 63 -5 35 12 51 49 21 49
-17 0 -19 8 -19 75 0 67 -3 79 -25 100 -20 21 -34 25 -77 24 -29 0 -65 -5 -79
-10z m101 -154 c0 -28 -4 -36 -24 -41 -51 -12 -64 30 -18 58 38 24 42 23 42
-17z"/>
<path d="M2240 1846 l0 -126 40 0 40 0 0 64 c0 83 26 121 76 113 30 -5 33 -3
39 25 12 55 -47 67 -88 18 l-26 -30 -3 28 c-3 23 -8 27 -40 30 l-38 3 0 -125z"/>
<path d="M2814 1951 c-53 -33 -70 -119 -34 -178 25 -42 52 -55 114 -57 68 -1
116 19 116 49 0 23 0 23 -39 8 -65 -25 -131 -2 -131 46 0 7 33 11 90 11 100 0
102 2 76 64 -30 73 -122 100 -192 57z m116 -50 c15 -30 14 -31 -40 -31 -52 0
-60 8 -34 34 21 22 61 20 74 -3z"/>
</g>
</svg>
